# AST/ASF file generated using VICON BodyLanguage
# -----------------------------------------------
:version 1.10
:name VICON
:units
  mass 1.0
  length 0.45
  angle deg
:documentation
   .ast/.asf automatically generated from VICON data using
   VICON BodyBuilder and BodyLanguage model FoxedUp or BRILLIANT.MOD
:root
   order TX TY TZ RX RY RZ
   axis XYZ
   position 0 0 0  
   orientation 0 0 0 
:bonedata
  begin
     id 1 
     name lhipjoint
     direction 0.602128 -0.715006 0.355257 
     length 2.21237 
     axis 0 0 0  XYZ
  end
  begin
     id 2 
     name lfemur
     direction 0.34202 -0.939693 0  
     length 6.71649  
     axis 0 0 20  XYZ
    dof rx ry rz
    limits (-160.0 20.0)
           (-70.0 70.0)
           (-60.0 70.0)
  end
  begin
     id 3 
     name ltibia
     direction 0.34202 -0.939693 0   
     length 6.97123   
     axis 0 0 20   XYZ
    dof rx
    limits (-10.0 170.0)
  end
  begin
     id 4 
     name lfoot
     direction 0.0655697 -0.180151 0.981451   
     length 1.80924   
     axis -90 7.62852e-016 20   XYZ
    dof rx rz
    limits (-45.0 90.0)
           (-70.0 20.0)
  end
  begin
     id 5 
     name ltoes
     direction 1.53545e-011 -4.21827e-011 1   
     length 0.916331   
     axis -90 7.62852e-016 20   XYZ
    dof rx
    limits (-90.0 20.0)
  end
  begin
     id 6 
     name rhipjoint
     direction -0.625414 -0.698792 0.347201   
     length 2.2637  
     axis 0 0 0  XYZ 
  end
  begin
     id 7 
     name rfemur
     direction -0.34202 -0.939693 0   
     length 7.07595   
     axis 0 0 -20   XYZ
    dof rx ry rz
    limits (-160.0 20.0)
           (-70.0 70.0)
           (-70.0 60.0)
  end
  begin
     id 8 
     name rtibia
     direction -0.34202 -0.939693 0   
     length 7.22924   
     axis 0 0 -20   XYZ
    dof rx
    limits (-10.0 170.0)
 end
 begin
     id 9 
     name rfoot
     direction -0.0766747 -0.210662 0.974547   
     length 1.98482  
     axis -90 -7.62852e-016 -20   XYZ
    dof rx rz
    limits (-45.0 90.0)
           (-20.0 70.0)
  end
  begin
     id 10 
     name rtoes
     direction -1.53532e-011 -4.21867e-011 1   
     length 0.999842   
     axis -90 -7.62852e-016 -20   XYZ
    dof rx
    limits (-90.0 20.0)
  end
  begin
     id 11 
     name lowerback
     direction -0.0224668 0.997354 -0.0691422   
     length 2.09945   
     axis 0 0 0   XYZ
    dof rx ry rz
    limits (-20.0 45.0)
           (-30.0 30.0)
           (-30.0 30.0)
  end
  begin
     id 12 
     name upperback
     direction 0.0134698 0.998451 -0.0539888   
     length 2.09758   
     axis 0 0 0   XYZ
    dof rx ry rz
    limits (-20.0 45.0)
           (-30.0 30.0)
           (-30.0 30.0)
  end
  begin
     id 13 
     name thorax
     direction 0.0241905 0.99948 -0.0213333   
     length 2.10428   
     axis 0 0 0   XYZ
    dof rx ry rz
    limits (-20.0 45.0)
           (-30.0 30.0)
           (-30.0 30.0)
  end
  begin
     id 14 
     name lowerneck
     direction -0.00866847 0.995978 0.0891737   
     length 1.3959   
     axis 0 0 0   XYZ
    dof rx ry rz
    limits (-20.0 45.0)
           (-30.0 30.0)
           (-30.0 30.0)
  end
  begin
     id 15 
     name upperneck
     direction 0.0680679 0.992203 0.104404   
     length 1.39452   
     axis 0 0 0   XYZ
    dof rx ry rz
    limits (-20.0 45.0)
           (-30.0 30.0)
           (-30.0 30.0)
  end
  begin
     id 16
     name head
     direction 0.0242216 0.999358 0.0264054  
     length 1.40433  
     axis 0 0 0   XYZ
    dof rx ry rz
    limits (-20.0 45.0)
           (-30.0 30.0)
           (-30.0 30.0)
  end
  begin
     id 17 
     name lclavicle
     direction 0.929368 0.362991 -0.0671771  
     length 3.04887  
     axis 0 0 0   XYZ
    dof ry rz
    limits (-20.0 10.0)
           (0.0 20.0)
  end
  begin
     id 18 
     name lhumerus
     direction 1 -4.48967e-011 -7.13741e-028   
     length 4.77195   
     axis -180 -30 -90   XYZ
    dof rx ry rz
    limits (-60.0 90.0)
           (-90.0 90.0)
           (-90.0 90.0)
  end
  begin
     id 19
     name lradius
     direction 1 -4.48977e-011 3.60404e-027   
     length 2.98444   
     axis -180 -30 -90   XYZ
    dof rx
    limits (-10.0 170.0)
  end
  begin
     id 20
     name lwrist
     direction 1 -4.48997e-011 7.54877e-027   
     length 1.49222   
     axis -7.18178e-015 90 90   XYZ
    dof ry
    limits (-180.0 0.0)
 end
  begin
     id 21 
     name lhand
     direction 1 -4.489e-011 1.51105e-026   
     length 0.992285   
     axis -9.63605e-015 90 90   XYZ
    dof rx rz
    limits (-90.0 90.0)
           (-45.0 45.0)
  end
  begin
     id 22 
     name lfingers
     direction 1 -4.48998e-011 3.01948e-026   
     length 0.800006   
     axis -1.92718e-014 90 90   XYZ
    dof rx
    limits (0.0 90.0)
  end
  begin
     id 23
     name lthumb
     direction 0.707107 -6.34881e-011 0.707107   
     length 1.14865   
     axis -90 45 -3.53137e-014   XYZ
    dof rx rz
    limits (-45.0 45.0)
           (-45.0 45.0)
  end
  begin
     id 24 
     name rclavicle
     direction -0.945672 0.324529 0.0196374   
     length 3.4236  
     axis 0 0 0   XYZ 
    dof ry rz
    limits (-10.0 20.0)
           (-20.0 0.0)
  end
  begin
     id 25 
     name rhumerus
     direction -1 -4.4896e-011 1.02757e-029  
     length 4.62052   
     axis -180 30 90   XYZ
    dof rx ry rz
    limits (-90.0 60.0)
           (-90.0 90.0)
           (-90.0 90.0)
  end
  begin
     id 26 
     name rradius
     direction -1 -4.48982e-011 3.85962e-027   
     length 2.95332   
     axis -180 30 90   XYZ
    dof rx
    limits (-10.0 170.0)
  end
  begin
     id 27 
     name rwrist
     direction -1 -4.48961e-011 7.55118e-027   
     length 1.47666   
     axis -7.18178e-015 -90 -90   XYZ
    dof ry
    limits (-180.0 0.0)
  end
  begin
     id 28
     name rhand
     direction -1 -4.48984e-011 1.50994e-026   
     length 0.990956   
     axis -9.63605e-015 -90 -90   XYZ
    dof rx rz
    limits (-90.0 90.0)
           (-45.0 45.0)
  end
  begin
     id 29
     name rfingers
     direction -1 -4.4892e-011 3.02158e-026   
     length 0.798934   
     axis -1.92718e-014 -90 -90   XYZ
    dof rx
    limits (0.0 90.0)
  end
  begin
     id 30
     name rthumb
     direction -0.707107 -6.34916e-011 0.707107   
     length 1.14711   
     axis -90 -45 3.53137e-014   XYZ
    dof rx rz
    limits (-45.0 45.0)
           (-45.0 45.0)
  end
:hierarchy
  begin
    root lhipjoint rhipjoint lowerback
    lhipjoint lfemur
    lfemur ltibia
    ltibia lfoot
    lfoot ltoes
    rhipjoint rfemur
    rfemur rtibia
    rtibia rfoot
    rfoot rtoes
    lowerback upperback
    upperback thorax
    thorax lowerneck lclavicle rclavicle
    lowerneck upperneck
    upperneck head
    lclavicle lhumerus
    lhumerus lradius
    lradius lwrist
    lwrist lhand lthumb
    lhand lfingers
    rclavicle rhumerus
    rhumerus rradius
    rradius rwrist
    rwrist rhand rthumb
    rhand rfingers
  end

#!OML:ASF H:\ManfredObstacles\Project 1\Capture day 1\Session 1\Male.ASF
:FULLY-SPECIFIED
:DEGREES
113
root 17.3686 16.2447 32.9227 -168.957 -8.18656 -178.943
lowerback -7.80433 -2.73437 -1.6722
upperback 2.23911 -3.56434 1.1665
thorax 6.90733 -1.85048 1.66986
lowerneck -1.74336 -1.69942 -5.64243
upperneck -10.4975 -2.34089 7.66087
head -2.95123 -1.45782 3.62363
rclavicle 6.16232e-015 -4.07509e-015
rhumerus -36.0952 -29.4398 -72.1181
rradius 22.4012
rwrist 35.9428
rhand -0.490445 -5.96488
rfingers 7.12502
rthumb 25.1205 -34.3323
lclavicle 6.16232e-015 -4.07509e-015
lhumerus -24.6929 15.3801 83.7023
lradius 19.8679
lwrist -30.065
lhand -8.86388 9.48534
lfingers 7.12502
lthumb 17.0775 38.7547
rfemur -20.7698 -1.30912 25.3405
rtibia 27.1156
rfoot -17.1767 12.1954
rtoes 20.6342
lfemur -22.3909 -3.67539 -14.9658
ltibia 59.3408
lfoot 4.99333 4.38445
ltoes -2.91774
114
root 17.3911 16.2507 32.8146 -169.236 -7.80187 -179.032
lowerback -7.58644 -2.58649 -1.70588
upperback 1.58705 -3.3469 1.00257
thorax 6.07333 -1.72969 1.57422
lowerneck 1.63198 -1.58078 -5.60414
upperneck -11.5599 -2.12436 7.94195
head -3.54405 -1.3984 3.43301
rclavicle -6.5102e-015 -1.19271e-015
rhumerus -37.8318 -28.3092 -71.7459
rradius 22.9509
rwrist 35.1881
rhand -0.376696 -6.24105
rfingers 7.12502
rthumb 25.2295 -34.5931
lclavicle -6.5102e-015 -1.19271e-015
lhumerus -26.5317 14.8135 83.2727
lradius 20.2487
lwrist -29.7224
lhand -8.96808 9.69405
lfingers 7.12502
lthumb 16.9772 38.9721
rfemur -19.8148 -1.41635 25.3498
rtibia 26.6916
rfoot -17.2833 12.6598
rtoes 21.0693
lfemur -24.3609 -3.77602 -15.3456
ltibia 61.5238
lfoot 3.71847 3.8979
ltoes -7.72886
115
root 17.4147 16.2421 32.7124 -169.645 -7.44125 -178.849
lowerback -7.2361 -2.4145 -1.54392
upperback 1.65843 -3.13609 0.96963
thorax 5.92824 -1.61994 1.48994
lowerneck 1.72984 -1.658 -5.4813
upperneck -11.3259 -2.21599 7.91755
head -3.48549 -1.43793 3.40418
rclavicle 1.79403e-014 9.93923e-016
rhumerus -37.9364 -28.4256 -71.6005
rradius 23.0157
rwrist 35.4005
rhand -0.405494 -5.97499
rfingers 7.12502
rthumb 25.2019 -34.331
lclavicle 1.79403e-014 9.93923e-016
lhumerus -26.6232 14.8213 83.1714
lradius 20.2903
lwrist -29.6284
lhand -9.23396 9.53434
lfingers 7.12502
lthumb 16.7212 38.8342
rfemur -18.8478 -1.38885 25.6542
rtibia 26.3731
rfoot -17.4155 13.0336
rtoes 21.6187
lfemur -26.1471 -3.72861 -15.3866
ltibia 63.021
lfoot 2.87167 3.70041
ltoes -15.8363
116
root 17.4435 16.2243 32.616 -169.948 -7.05614 -178.514
lowerback -6.85292 -2.25128 -1.31341
upperback 1.6675 -2.94545 0.985925
thorax 5.70015 -1.51821 1.41672
lowerneck 1.57958 -1.67685 -5.25976
upperneck -10.9957 -2.23159 7.81134
head -3.36475 -1.43723 3.32669
rclavicle -1.57537e-014 -8.34896e-015
rhumerus -37.9179 -29.0665 -71.2973
rradius 22.7714
rwrist 36.1258
rhand -0.496217 -5.89874
rfingers 7.12502
rthumb 25.115 -34.2669
lclavicle -1.57537e-014 -8.34896e-015
lhumerus -26.747 14.586 83.0855
lradius 20.4606
lwrist -29.2619
lhand -9.0358 9.93013
lfingers 7.12502
lthumb 16.912 39.2138
rfemur -18.1354 -1.03081 26.1451
rtibia 26.2116
rfoot -17.6985 13.0533
rtoes 21.6818
lfemur -28.0403 -3.61455 -15.1603
ltibia 63.904
lfoot 2.00068 3.61894
ltoes -23.9715
117
root 17.4648 16.2149 32.5115 -170.064 -6.7582 -178.551
lowerback -6.83358 -2.17106 -1.32228
upperback 1.75899 -2.83227 0.887048
thorax 5.77611 -1.46155 1.33125
lowerneck 1.38633 -1.64285 -5.25852
upperneck -10.7298 -2.17722 7.84673
head -3.25601 -1.40229 3.32833
rclavicle -4.18193e-014 5.96354e-016
rhumerus -37.6293 -29.3962 -71.358
rradius 22.6345
rwrist 36.4994
rhand -0.431271 -6.07671
rfingers 7.12502
rthumb 25.1772 -34.4362
lclavicle -4.18193e-014 5.96354e-016
lhumerus -26.7599 14.4532 82.9727
lradius 20.6
lwrist -29.0635
lhand -8.67486 10.1901
lfingers 7.12502
lthumb 17.2594 39.4436
rfemur -17.6362 -1.23843 26.2282
rtibia 26.2712
rfoot -18.0218 13.5985
rtoes 22.1936
lfemur -29.8476 -3.86035 -15.3699
ltibia 64.1564
lfoot 0.861567 3.93359
ltoes -31.1531
118
root 17.4784 16.2043 32.4027 -170.079 -6.43355 -178.704
lowerback -6.98315 -2.06446 -1.36427
upperback 1.80786 -2.67606 0.751328
thorax 5.9022 -1.38358 1.22604
lowerneck 1.48987 -1.64433 -5.36437
upperneck -10.628 -2.17122 7.95312
head -3.2401 -1.39581 3.37774
rclavicle 3.62782e-015 -4.37326e-015
rhumerus -37.542 -28.9478 -71.6846
rradius 22.8704
rwrist 35.9935
rhand -0.227089 -5.98574
rfingers 7.12502
rthumb 25.3728 -34.3176
lclavicle 3.62782e-015 -4.37326e-015
lhumerus -26.7933 14.5947 82.7211
lradius 20.4576
lwrist -29.2941
lhand -8.46523 9.81579
lfingers 7.12502
lthumb 17.4611 39.0516
rfemur -17.2552 -1.81853 26.1462
rtibia 26.414
rfoot -18.2497 14.6503
rtoes 23.0708
lfemur -31.5391 -4.15426 -15.7558
ltibia 63.8646
lfoot -0.37618 4.45109
ltoes 22.4218
119
root 17.4933 16.185 32.2959 -170.134 -5.96162 -179.016
lowerback -6.87598 -1.95883 -1.6553
upperback 1.79351 -2.5005 0.599205
thorax 5.82584 -1.30365 1.25619
lowerneck 1.45823 -1.59475 -5.3879
upperneck -10.4876 -2.103 7.92799
head -3.19765 -1.3542 3.36914
rclavicle 1.11319e-014 -1.59028e-015
rhumerus -37.4769 -28.4692 -71.9863
rradius 23.0613
rwrist 35.5155
rhand -0.103299 -5.84327
rfingers 7.12502
rthumb 25.4914 -34.1582
lclavicle 1.11319e-014 -1.59028e-015
lhumerus -26.923 14.9085 82.4056
lradius 20.2991
lwrist -29.7706
lhand -8.4421 9.58199
lfingers 7.12502
lthumb 17.4834 38.8158
rfemur -16.8338 -1.95373 25.8566
rtibia 26.5624
rfoot -18.6206 15.3163
rtoes 23.4432
lfemur -33.0582 -4.26073 -16.2709
ltibia 63.049
lfoot -1.49998 4.7727
ltoes 12.4766
120
root 17.5034 16.1622 32.1735 -170.263 -5.6746 -178.792
lowerback -6.88176 -1.90122 -1.34471
upperback 1.8533 -2.45227 0.599549
thorax 5.87637 -1.26973 1.08704
lowerneck 1.24072 -1.48682 -5.4329
upperneck -10.027 -2.00208 7.60273
head -3.3774 -1.25909 3.61358
rclavicle 1.48095e-014 7.95139e-015
rhumerus -37.2128 -28.2883 -72.2358
rradius 22.9806
rwrist 35.4513
rhand -0.135234 -5.86015
rfingers 7.12502
rthumb 25.4608 -34.1794
lclavicle 1.48095e-014 7.95139e-015
lhumerus -27.0932 14.9536 82.2243
lradius 20.4022
lwrist -29.7847
lhand -8.59736 9.74528
lfingers 7.12502
lthumb 17.334 38.9923
rfemur -16.2681 -2.09845 26.1433
rtibia 26.6779
rfoot -19.3543 15.8156
rtoes 23.1997
lfemur -34.3741 -4.4047 -16.1108
ltibia 61.711
lfoot -2.44415 4.85527
ltoes -7.41409
121
root 17.5173 16.1418 32.0509 -170.405 -5.36433 -178.382
lowerback -6.85072 -1.81866 -0.939532
upperback 1.89307 -2.38417 0.667025
thorax 5.88386 -1.22373 0.938741
lowerneck 1.17011 -1.94504 -5.48967
upperneck -9.83257 -1.79288 7.63032
head -3.30088 -0.788623 3.59915
rclavicle -1.54555e-014 -2.38542e-015
rhumerus -36.9896 -28.1047 -72.4869
rradius 22.8841
rwrist 35.3979
rhand -0.103317 -5.9086
rfingers 7.12502
rthumb 25.4914 -34.2235
lclavicle -1.54555e-014 -2.38542e-015
lhumerus -27.3125 14.8205 82.0688
lradius 20.5366
lwrist -29.4584
lhand -8.61913 9.8345
lfingers 7.12502
lthumb 17.313 39.0834
rfemur -15.6586 -2.1005 26.6361
rtibia 26.6906
rfoot -19.8406 16.1024
rtoes 21.8653
lfemur -35.5563 -4.50424 -15.7088
ltibia 59.9434
lfoot -4.65539 3.58468
ltoes -9.64116
122
root 17.5234 16.1384 31.9117 -170.58 -4.70492 -178.869
lowerback -6.80074 -1.68269 -1.37761
upperback 1.89328 -2.14997 0.447129
thorax 5.85748 -1.11912 0.98509
lowerneck 1.29818 -1.85606 -5.57367
upperneck -9.72603 -1.69585 7.67244
head -3.29619 -0.746521 3.62849
rclavicle 2.96686e-014 4.96962e-015
rhumerus -36.9554 -27.8105 -72.6982
rradius 22.8401
rwrist 35.1306
rhand 0.0292277 -5.99684
rfingers 7.12502
rthumb 25.6184 -34.2936
lclavicle 2.96686e-014 4.96962e-015
lhumerus -27.731 15.0594 81.703
lradius 20.5872
lwrist -29.6126
lhand -8.38305 9.72598
lfingers 7.12502
lthumb 17.5402 38.9547
rfemur -14.7925 -2.32619 26.0593
rtibia 26.5463
rfoot -20.1669 16.9348
rtoes 21.7528
lfemur -36.1113 -4.64916 -16.3986
ltibia 57.5511
lfoot -5.4042 3.74189
ltoes -10.6979
123
root 17.5358 16.1194 31.7955 -170.5 -4.16697 -178.385
lowerback -6.75075 -1.49051 -0.909555
upperback 1.77318 -1.94019 0.534765
thorax 5.683 -0.999536 0.842076
lowerneck 1.26827 -1.76534 -5.6327
upperneck -9.61566 -1.58801 7.65835
head -3.26081 -0.692885 3.62889
rclavicle 1.15792e-014 4.17448e-015
rhumerus -36.8859 -27.577 -72.8709
rradius 22.7655
rwrist 34.9424
rhand 0.0443132 -6.09191
rfingers 7.12502
rthumb 25.6328 -34.3866
lclavicle 1.15792e-014 4.17448e-015
lhumerus -28.0349 15.3961 81.341
lradius 20.4429
lwrist -29.9131
lhand -8.41799 9.61706
lfingers 7.12502
lthumb 17.5066 38.8488
rfemur -14.3515 -2.02819 26.6164
rtibia 26.2479
rfoot -20.3551 17.1837
rtoes 21.6396
lfemur -37.1911 -4.50567 -15.8499
ltibia 54.8935
lfoot -4.84203 5.18469
ltoes -12.0555
124
root 17.5391 16.1179 31.653 -170.586 -3.52329 -178.63
lowerback -6.86989 -1.35945 -1.10015
upperback 1.87855 -1.74005 0.406752
thorax 5.85869 -0.906023 0.835009
lowerneck 1.12709 -1.69762 -5.71755
upperneck -9.56774 -1.49574 7.64953
head -3.22455 -0.640718 3.63563
rclavicle -8.94531e-015 1.21259e-014
rhumerus -36.5906 -27.6147 -73.0403
rradius 22.6151
rwrist 35.229
rhand -0.0247727 -6.1552
rfingers 7.12502
rthumb 25.5666 -34.4594
lclavicle -8.94531e-015 1.21259e-014
lhumerus -28.0714 15.8224 81.011
lradius 20.1239
lwrist -30.0575
lhand -8.51033 9.54368
lfingers 7.12502
lthumb 17.4177 38.7833
rfemur -13.4916 -2.1771 26.2998
rtibia 25.8907
rfoot -20.6946 17.761
rtoes 20.8526
lfemur -37.4919 -4.52624 -16.1466
ltibia 51.7525
lfoot -4.73542 5.63761
ltoes -11.9114
125
root 17.5428 16.1188 31.5042 -170.658 -3.05009 -178.584
lowerback -6.95835 -1.29045 -1.00024
upperback 1.90011 -1.65409 0.370307
thorax 5.92554 -0.859586 0.749024
lowerneck 1.19443 -1.63631 -5.71837
upperneck -9.64949 -1.41717 7.58156
head -3.2718 -0.600504 3.61339
rclavicle -1.41634e-014 4.57205e-015
rhumerus -36.3532 -27.4438 -73.2753
rradius 22.5782
rwrist 35.3353
rhand 0.142875 -6.24943
rfingers 7.12502
rthumb 25.7272 -34.5305
lclavicle -1.41634e-014 4.57205e-015
lhumerus -28.4097 16.8115 80.3781
lradius 19.9119
lwrist -30.7636
lhand -8.35281 9.38609
lfingers 7.12502
lthumb 17.5693 38.6122
rfemur -12.5848 -2.36012 26.3119
rtibia 25.4674
rfoot -21.008 18.2887
rtoes 20.3937
lfemur -37.7283 -4.60259 -16.0183
ltibia 48.4961
lfoot -4.63282 5.20507
ltoes -11.2962
126
root 17.542 16.1134 31.3548 -170.61 -2.56932 -178.545
lowerback -7.06906 -1.29919 -0.919729
upperback 2.01284 -1.66973 0.313049
thorax 6.10363 -0.864377 0.63822
lowerneck 0.215333 -1.43059 -5.51927
upperneck -9.13618 -1.13233 7.30574
head -2.93054 -0.439411 3.43917
rclavicle -1.77912e-014 1.59028e-015
rhumerus -35.7366 -27.2381 -73.7996
rradius 22.4917
rwrist 35.4559
rhand 0.319726 -6.16825
rfingers 7.12502
rthumb 25.8966 -34.4246
lclavicle -1.77912e-014 1.59028e-015
lhumerus -28.5037 18.0609 79.6287
lradius 19.6202
lwrist -31.5302
lhand -8.33103 9.3757
lfingers 7.12502
lthumb 17.5903 38.6
rfemur -11.7924 -2.6186 26.2818
rtibia 24.9501
rfoot -21.3795 18.7665
rtoes 19.0433
lfemur -37.9574 -4.65227 -15.8969
ltibia 45.0747
lfoot -4.14029 4.58522
ltoes -10.3587
